# xmcd
#
# Track frame offsets: 
#        150
#        16275
#        27947
#        46847
#        59265
#        73322
#        92700
#        109125
#        123072
#        143475
#        157272
#        169125
#        191097
#        204072
#        217875
#        233550
#        251065
#        262165
#        272712
#        292315
#        313390
#
# Disc length: 4382 seconds
#
# Revision: 2
# Processed by: cddbd v1.5.1PL2 Copyright (c) Steve Scherf et al.
# Submitted via: ExactAudioCopy v0.95b4
#
DISCID=3c111c15
DTITLE=Neil Diamond - The Ultimate Collection [CD2)
DYEAR=1996
DGENRE=Rock
TTITLE0=I Am... I Said
TTITLE1=Solitary Man
TTITLE2=He Ain't Heavy He's My Brother
TTITLE3=Cherry, Cherry
TTITLE4=Walk On Water
TTITLE5=Soolaimon
TTITLE6=The Sun Ain't Gonna Shine Anymore
TTITLE7=Stones
TTITLE8=You've Lost That Loving Feelin' (Duet With Dolly Parton)
TTITLE9=Morning Has Broken
TTITLE10=Chelsea Morning
TTITLE11=Mr. Bojangles
TTITLE12=Yesterday's Songs
TTITLE13=Thank The Lord For The Night Time
TTITLE14=Brother Loves Travelling Salvation Show
TTITLE15=September Morn
TTITLE16=Kentucky Woman
TTITLE17=I Got The Feelin' (Oh No, No)
TTITLE18=America
TTITLE19=Holy, Holy
TTITLE20=You Don't Bring Me Flowers (Duet With Barbra Streisand)
EXTD=
EXTT0=
EXTT1=
EXTT2=
EXTT3=
EXTT4=
EXTT5=
EXTT6=
EXTT7=
EXTT8=
EXTT9=
EXTT10=
EXTT11=
EXTT12=
EXTT13=
EXTT14=
EXTT15=
EXTT16=
EXTT17=
EXTT18=
EXTT19=
EXTT20=
PLAYORDER=
